<svg xmlns="http://www.w3.org/2000/svg" width="256" height="256" viewBox="0 0 100 100"><rect width="100" height="100" rx="20" fill="#1a0f57"></rect><path fill="#fff" d="M23.83 34.95L33.98 34.95L33.98 65.05L24.14 65.05L24.14 61.82Q21.08 65.74 15.79 65.74L15.79 65.74Q10.50 65.74 7.58 62.25Q4.66 58.77 4.66 52.36L4.66 52.36L4.66 34.95L14.80 34.95L14.80 52.06Q14.80 54.82 15.97 56.17Q17.13 57.52 19.19 57.52L19.19 57.52Q21.21 57.52 22.52 56.04Q23.83 54.56 23.83 51.72L23.83 51.72L23.83 34.95ZM50.11 65.74Q46.37 65.74 42.82 64.90Q39.27 64.06 36.99 62.64L36.99 62.64L40.26 55.25Q42.41 56.49 45.08 57.25Q47.74 58.00 50.19 58.00L50.19 58.00Q52.30 58.00 53.20 57.59Q54.11 57.18 54.11 56.36L54.11 56.36Q54.11 55.42 52.92 54.94Q51.74 54.47 49.03 53.91L49.03 53.91Q45.55 53.18 43.23 52.34Q40.91 51.50 39.19 49.59Q37.47 47.68 37.47 44.41L37.47 44.41Q37.47 41.57 39.06 39.25Q40.65 36.93 43.81 35.59Q46.97 34.26 51.48 34.26L51.48 34.26Q54.58 34.26 57.57 34.93Q60.56 35.59 62.84 36.88L62.84 36.88L59.78 44.24Q55.35 42.00 51.40 42.00L51.40 42.00Q47.48 42.00 47.48 43.89L47.48 43.89Q47.48 44.80 48.65 45.25Q49.81 45.70 52.47 46.22L52.47 46.22Q55.91 46.86 58.28 47.70Q60.64 48.54 62.38 50.43Q64.13 52.32 64.13 55.59L64.13 55.59Q64.13 58.43 62.53 60.73Q60.94 63.03 57.78 64.38Q54.62 65.74 50.11 65.74L50.11 65.74ZM81.63 34.95Q85.80 34.95 88.89 36.33Q91.99 37.70 93.67 40.28Q95.34 42.86 95.34 46.30L95.34 46.30Q95.34 49.74 93.67 52.32Q91.99 54.90 88.89 56.28Q85.80 57.65 81.63 57.65L81.63 57.65L77.28 57.65L77.28 65.05L67.14 65.05L67.14 34.95L81.63 34.95ZM80.98 49.83Q83.05 49.83 84.08 48.90Q85.11 47.98 85.11 46.30L85.11 46.30Q85.11 44.63 84.08 43.70Q83.05 42.78 80.98 42.78L80.98 42.78L77.28 42.78L77.28 49.83L80.98 49.83Z"></path></svg>